<svg width="288" height="288" viewBox="0 0 288 288" fill="none" xmlns="http://www.w3.org/2000/svg">
<path d="M143.357 0C163.249 0 181.883 3.77255 199.259 11.3177C216.636 18.8628 231.841 29.0944 244.873 42.0125C257.905 54.9307 268.194 70.078 275.739 87.4547C283.284 104.831 287.057 123.465 287.057 143.357C287.057 163.249 283.284 181.883 275.739 199.259C268.194 216.636 257.905 231.841 244.873 244.873C231.841 257.905 216.636 268.194 199.259 275.739C181.883 283.284 163.249 287.057 143.357 287.057C123.465 287.057 104.831 283.284 87.4547 275.739C70.078 268.194 54.9307 257.905 42.0125 244.873C29.0944 231.841 18.8628 216.636 11.3177 199.259C3.77255 181.883 0 163.249 0 143.357C0 123.465 3.77255 104.831 11.3177 87.4547C18.8628 70.078 29.0944 54.9307 42.0125 42.0125C54.9307 29.0944 70.078 18.8628 87.4547 11.3177C104.831 3.77255 123.465 0 143.357 0ZM98.7723 107.689H62.7616V224.295H98.7723V107.689ZM80.5955 98.4294C85.6255 98.4294 89.9125 96.7146 93.4564 93.285C97.0004 89.8554 98.7723 85.6255 98.7723 80.5955C98.7723 75.5654 97.0004 71.3356 93.4564 67.906C89.9125 64.4764 85.6255 62.7616 80.5955 62.7616C75.5654 62.7616 71.3356 64.4764 67.906 67.906C64.4764 71.3356 62.7616 75.5654 62.7616 80.5955C62.7616 85.6255 64.4764 89.8554 67.906 93.285C71.3356 96.7146 75.5654 98.4294 80.5955 98.4294ZM224.295 156.732C224.295 148.501 222.009 140.442 217.436 132.554C212.863 124.666 206.919 118.664 199.602 114.548C192.972 110.89 185.255 108.947 176.453 108.718C167.65 108.49 159.59 109.976 152.274 113.177V107.689H116.606V224.295H152.274V152.96L167.364 145.758C169.193 144.843 171.651 144.386 174.738 144.386C177.824 144.386 180.282 144.958 182.111 146.101C183.483 146.787 184.855 148.273 186.227 150.559C187.599 152.846 188.285 154.903 188.285 156.732V224.295H224.295V156.732Z" fill="#FD4556"/>
</svg>
