<svg width="288" height="288" viewBox="0 0 288 288" fill="none" xmlns="http://www.w3.org/2000/svg">
<path d="M215.379 0C225.21 0 234.47 1.88628 243.158 5.65883C251.847 9.43138 259.449 14.5758 265.965 21.092C272.481 27.6082 277.626 35.2105 281.398 43.8988C285.171 52.5871 287.057 61.847 287.057 71.6785V215.036C287.057 224.867 285.171 234.184 281.398 242.987C277.626 251.789 272.481 259.449 265.965 265.965C259.449 272.481 251.847 277.626 243.158 281.398C234.47 285.171 225.21 287.057 215.379 287.057H71.6785C61.847 287.057 52.5871 285.171 43.8988 281.398C35.2105 277.626 27.6082 272.481 21.092 265.965C14.5758 259.449 9.43138 251.789 5.65883 242.987C1.88628 234.184 0 224.867 0 215.036V71.6785C0 61.847 1.88628 52.5871 5.65883 43.8988C9.43138 35.2105 14.5758 27.6082 21.092 21.092C27.6082 14.5758 35.2105 9.43138 43.8988 5.65883C52.5871 1.88628 61.847 0 71.6785 0H215.379ZM62.7616 181.083L105.974 150.216L62.7616 119.35V181.083ZM224.295 194.458L171.823 156.732L143.7 176.967L115.234 156.732L62.7616 194.458V215.036H224.295V194.458ZM224.295 119.35L181.083 150.216L224.295 181.083V119.35ZM224.295 71.6785H62.7616V92.599L143.7 150.216L224.295 92.599V71.6785Z" fill="#FD4556"/>
</svg>
