<svg width="287" height="287" viewBox="0 0 287 287" fill="none" xmlns="http://www.w3.org/2000/svg">
<path d="M256.25 0H30.75C13.7734 0 0 13.7734 0 30.75V256.25C0 273.227 13.7734 287 30.75 287H256.25C273.227 287 287 273.227 287 256.25V30.75C287 13.7734 273.227 0 256.25 0ZM177.645 245.808C172.264 246.769 170.278 243.438 170.278 240.683C170.278 237.223 170.406 219.542 170.406 205.256C170.406 195.262 167.075 188.92 163.167 185.589C186.87 182.963 211.855 179.695 211.855 138.759C211.855 127.1 207.691 121.27 200.9 113.775C201.989 111.02 205.641 99.6813 199.811 84.9469C190.906 82.1922 170.534 96.4141 170.534 96.4141C162.078 94.0437 152.917 92.8266 143.884 92.8266C134.852 92.8266 125.691 94.0437 117.234 96.4141C117.234 96.4141 96.8625 82.1922 87.9578 84.9469C82.1281 99.6172 85.7156 110.956 86.8688 113.775C80.0781 121.27 76.875 127.1 76.875 138.759C76.875 179.503 100.77 182.963 124.473 185.589C121.398 188.344 118.644 193.084 117.683 199.875C111.597 202.63 96.0297 207.37 86.7406 190.97C80.9109 180.848 70.4047 180.016 70.4047 180.016C60.0266 179.887 69.7 186.55 69.7 186.55C76.6188 189.753 81.4875 202.053 81.4875 202.053C87.7016 221.08 117.427 214.673 117.427 214.673C117.427 223.578 117.555 238.056 117.555 240.683C117.555 243.438 115.633 246.769 110.188 245.808C67.9062 231.65 38.3094 191.419 38.3094 144.397C38.3094 85.5875 83.2812 40.9359 142.091 40.9359C200.9 40.9359 248.562 85.5875 248.562 144.397C248.627 191.419 219.927 231.714 177.645 245.808ZM114.8 206.666C113.583 206.922 112.43 206.409 112.302 205.577C112.173 204.616 113.006 203.783 114.223 203.527C115.441 203.398 116.594 203.911 116.722 204.744C116.914 205.577 116.081 206.409 114.8 206.666ZM108.714 206.089C108.714 206.922 107.753 207.627 106.472 207.627C105.062 207.755 104.102 207.05 104.102 206.089C104.102 205.256 105.062 204.552 106.344 204.552C107.561 204.423 108.714 205.128 108.714 206.089ZM99.9375 205.384C99.6812 206.217 98.4 206.602 97.3109 206.217C96.0937 205.961 95.2609 205 95.5172 204.167C95.7734 203.334 97.0547 202.95 98.1437 203.206C99.425 203.591 100.258 204.552 99.9375 205.384ZM92.0578 201.925C91.4812 202.63 90.2641 202.502 89.3031 201.541C88.3422 200.708 88.0859 199.491 88.7266 198.914C89.3031 198.209 90.5203 198.338 91.4813 199.298C92.3141 200.131 92.6344 201.413 92.0578 201.925ZM86.2281 196.095C85.6516 196.48 84.5625 196.095 83.8578 195.134C83.1531 194.173 83.1531 193.084 83.8578 192.636C84.5625 192.059 85.6516 192.508 86.2281 193.469C86.9328 194.43 86.9328 195.583 86.2281 196.095ZM82.0641 189.881C81.4875 190.458 80.5266 190.137 79.8219 189.497C79.1172 188.664 78.9891 187.703 79.5656 187.255C80.1422 186.678 81.1031 186.998 81.8078 187.639C82.5125 188.472 82.6406 189.433 82.0641 189.881ZM77.7719 185.141C77.5156 185.717 76.6828 185.845 75.9781 185.397C75.1453 185.012 74.7609 184.308 75.0172 183.731C75.2734 183.347 75.9781 183.155 76.8109 183.475C77.6438 183.923 78.0281 184.628 77.7719 185.141Z" fill="#FD4556"/>
</svg>
